<?xml version="1.0" encoding="UTF-8"?>
<svg id="Layer_2" data-name="Layer 2" xmlns="http://www.w3.org/2000/svg" viewBox="0 0 113.43 121.22">
  <defs>
    <style>
      .cls-1 {
        fill: #fff;
      }
    </style>
  </defs>
  <g id="Layer_1-2" data-name="Layer 1">
    <g>
      <path class="cls-1" d="M25.71,103.34l5.55-13.61c.43-.33,4.93,3.74,6.09,4.23,2.38,1.01,5.17,1.25,6.94-1.03.56-.73,1.58-4.2,1.58-4.97V0h27.73c-.32,23.94.41,47.92.02,71.86-.14,8.32.11,17.41-.51,25.71-1.23,16.65-14.21,25.21-30.27,23.42-5.79-5.76-11.49-12.05-17.14-17.64Z"/>
      <path class="cls-1" d="M111.41,33.78c.67.67,1.35,1.34,2.02,2.02v13.61h-9.07v35.79h-17.14v-35.79h-9.07v-15.63h33.27Z"/>
      <path class="cls-1" d="M7.06,33.78h7.06c.01,8.06-.03,16.14,0,24.2,0,1.35,0,2.68,0,4.03,0,.34,0,.67,0,1.01,0,2.35,0,4.71,0,7.06,0,1.01,0,2.02,0,3.02v11.59c-.72.71-5.81.74-7.06.5-1.51-.28-4.28-3.56-5.56-4.78-.77-.74-1.12-1.91-1.5-2.28v-37.3c2.34-2.35,4.73-4.7,7.06-7.06Z"/>
      <path class="cls-1" d="M14.12,57.97l9.83-24.2h15.88l-8.97,25.88,10.98,25.54h-16.38l-10.34-23.94-1.01.75c0-1.35,0-2.69,0-4.03Z"/>
    </g>
  </g>
</svg>